%TF.GenerationSoftware,KiCad,Pcbnew,10.0.5*%
%TF.CreationDate,2026-10-01T15:28:46-05:00*%
%TF.ProjectId,Lab_1_Morris_Lin_ASIC_II,4c61625f-315f-44d6-9f72-7269735f4c69,rev?*%
%TF.SameCoordinates,Original*%
%TF.FileFunction,Legend,Bot*%
%TF.FilePolarity,Positive*%
%FSLAX46Y46*%
G04 Gerber Fmt 4.6, Leading zero omitted, Abs format (unit mm)*
G04 Created by KiCad (PCBNEW 10.0.5) date 2026-10-01 15:28:46*
%MOMM*%
%LPD*%
G01*
G04 APERTURE LIST*
%ADD10C,0.254000*%
%ADD11C,0.200000*%
%ADD12R,1.700000X1.700000*%
%ADD13C,1.700000*%
%ADD14C,3.600000*%
%ADD15C,5.600000*%
%ADD16C,0.508000*%
%ADD17C,3.000000*%
%ADD18C,10.160000*%
%ADD19R,1.550000X0.700000*%
G04 APERTURE END LIST*
D10*
X55264762Y-66174318D02*
X55264762Y-64904318D01*
X53934285Y-66053365D02*
X53994761Y-66113842D01*
X53994761Y-66113842D02*
X54176190Y-66174318D01*
X54176190Y-66174318D02*
X54297142Y-66174318D01*
X54297142Y-66174318D02*
X54478571Y-66113842D01*
X54478571Y-66113842D02*
X54599523Y-65992889D01*
X54599523Y-65992889D02*
X54660000Y-65871937D01*
X54660000Y-65871937D02*
X54720476Y-65630032D01*
X54720476Y-65630032D02*
X54720476Y-65448603D01*
X54720476Y-65448603D02*
X54660000Y-65206699D01*
X54660000Y-65206699D02*
X54599523Y-65085746D01*
X54599523Y-65085746D02*
X54478571Y-64964794D01*
X54478571Y-64964794D02*
X54297142Y-64904318D01*
X54297142Y-64904318D02*
X54176190Y-64904318D01*
X54176190Y-64904318D02*
X53994761Y-64964794D01*
X53994761Y-64964794D02*
X53934285Y-65025270D01*
X53450476Y-65025270D02*
X53390000Y-64964794D01*
X53390000Y-64964794D02*
X53269047Y-64904318D01*
X53269047Y-64904318D02*
X52966666Y-64904318D01*
X52966666Y-64904318D02*
X52845714Y-64964794D01*
X52845714Y-64964794D02*
X52785238Y-65025270D01*
X52785238Y-65025270D02*
X52724761Y-65146222D01*
X52724761Y-65146222D02*
X52724761Y-65267175D01*
X52724761Y-65267175D02*
X52785238Y-65448603D01*
X52785238Y-65448603D02*
X53510952Y-66174318D01*
X53510952Y-66174318D02*
X52724761Y-66174318D01*
X105889762Y-66174318D02*
X105889762Y-64904318D01*
X104559285Y-66053365D02*
X104619761Y-66113842D01*
X104619761Y-66113842D02*
X104801190Y-66174318D01*
X104801190Y-66174318D02*
X104922142Y-66174318D01*
X104922142Y-66174318D02*
X105103571Y-66113842D01*
X105103571Y-66113842D02*
X105224523Y-65992889D01*
X105224523Y-65992889D02*
X105285000Y-65871937D01*
X105285000Y-65871937D02*
X105345476Y-65630032D01*
X105345476Y-65630032D02*
X105345476Y-65448603D01*
X105345476Y-65448603D02*
X105285000Y-65206699D01*
X105285000Y-65206699D02*
X105224523Y-65085746D01*
X105224523Y-65085746D02*
X105103571Y-64964794D01*
X105103571Y-64964794D02*
X104922142Y-64904318D01*
X104922142Y-64904318D02*
X104801190Y-64904318D01*
X104801190Y-64904318D02*
X104619761Y-64964794D01*
X104619761Y-64964794D02*
X104559285Y-65025270D01*
X103470714Y-65327651D02*
X103470714Y-66174318D01*
X103773095Y-64843842D02*
X104075476Y-65750984D01*
X104075476Y-65750984D02*
X103289285Y-65750984D01*
X80623762Y-66174318D02*
X80623762Y-64904318D01*
X79293285Y-66053365D02*
X79353761Y-66113842D01*
X79353761Y-66113842D02*
X79535190Y-66174318D01*
X79535190Y-66174318D02*
X79656142Y-66174318D01*
X79656142Y-66174318D02*
X79837571Y-66113842D01*
X79837571Y-66113842D02*
X79958523Y-65992889D01*
X79958523Y-65992889D02*
X80019000Y-65871937D01*
X80019000Y-65871937D02*
X80079476Y-65630032D01*
X80079476Y-65630032D02*
X80079476Y-65448603D01*
X80079476Y-65448603D02*
X80019000Y-65206699D01*
X80019000Y-65206699D02*
X79958523Y-65085746D01*
X79958523Y-65085746D02*
X79837571Y-64964794D01*
X79837571Y-64964794D02*
X79656142Y-64904318D01*
X79656142Y-64904318D02*
X79535190Y-64904318D01*
X79535190Y-64904318D02*
X79353761Y-64964794D01*
X79353761Y-64964794D02*
X79293285Y-65025270D01*
X78083761Y-66174318D02*
X78809476Y-66174318D01*
X78446619Y-66174318D02*
X78446619Y-64904318D01*
X78446619Y-64904318D02*
X78567571Y-65085746D01*
X78567571Y-65085746D02*
X78688523Y-65206699D01*
X78688523Y-65206699D02*
X78809476Y-65267175D01*
%TO.C,IC2*%
D11*
X50525000Y-70745000D02*
X52075000Y-70745000D01*
X52425000Y-60650000D02*
X52425000Y-70550000D01*
X52425000Y-70550000D02*
X55625000Y-70550000D01*
X55625000Y-60650000D02*
X52425000Y-60650000D01*
X55625000Y-70550000D02*
X55625000Y-60650000D01*
%TO.C,IC4*%
X101150000Y-70715000D02*
X102700000Y-70715000D01*
X103050000Y-60620000D02*
X103050000Y-70520000D01*
X103050000Y-70520000D02*
X106250000Y-70520000D01*
X106250000Y-60620000D02*
X103050000Y-60620000D01*
X106250000Y-70520000D02*
X106250000Y-60620000D01*
%TO.C,IC1*%
X75884000Y-70745000D02*
X77434000Y-70745000D01*
X77784000Y-60650000D02*
X77784000Y-70550000D01*
X77784000Y-70550000D02*
X80984000Y-70550000D01*
X80984000Y-60650000D02*
X77784000Y-60650000D01*
X80984000Y-70550000D02*
X80984000Y-60650000D01*
%TD*%
%LPC*%
D12*
%TO.C,JP3*%
X124460000Y-127980001D03*
D13*
X124460000Y-130520001D03*
X124460000Y-133060000D03*
%TD*%
D14*
%TO.C,H3*%
X135000000Y-135000000D03*
D15*
X135000000Y-135000000D03*
%TD*%
D13*
%TO.C,J6*%
X68690000Y-53455000D03*
X66150000Y-53455000D03*
X63610000Y-53455000D03*
X61070000Y-53455000D03*
X58530000Y-53455000D03*
D12*
X68690000Y-50915000D03*
D13*
X66150000Y-50915000D03*
X63610000Y-50915000D03*
X61070000Y-50915000D03*
X58530000Y-50915000D03*
%TD*%
D16*
%TO.C,U3*%
X84007600Y-104429200D03*
X84007600Y-105529200D03*
X84007600Y-106629200D03*
X84007600Y-107729200D03*
X84007600Y-108829200D03*
X85107600Y-104429200D03*
X85107600Y-105529200D03*
X85107600Y-106629200D03*
X85107600Y-107729200D03*
X85107600Y-108829200D03*
X86207600Y-104429200D03*
X86207600Y-105529200D03*
X86207600Y-106629200D03*
X86207600Y-107729200D03*
X86207600Y-108829200D03*
X87307600Y-104429200D03*
X87307600Y-105529200D03*
X87307600Y-106629200D03*
X87307600Y-107729200D03*
X87307600Y-108829200D03*
X88407600Y-104429200D03*
X88407600Y-105529200D03*
X88407600Y-106629200D03*
X88407600Y-107729200D03*
X88407600Y-108829200D03*
%TD*%
D13*
%TO.C,JP5*%
X111388000Y-46100000D03*
D12*
X111388000Y-43560000D03*
X108848000Y-46100000D03*
D13*
X111388000Y-48640000D03*
%TD*%
D12*
%TO.C,JP10*%
X122700000Y-107343333D03*
D13*
X122700000Y-109883333D03*
X122700000Y-112423333D03*
%TD*%
D14*
%TO.C,H2*%
X135000000Y-45000000D03*
D15*
X135000000Y-45000000D03*
%TD*%
D12*
%TO.C,JP4*%
X122700000Y-86450000D03*
D13*
X122700000Y-88990000D03*
X122700000Y-91530000D03*
%TD*%
%TO.C,JP9*%
X123326000Y-46080000D03*
D12*
X123326000Y-43540000D03*
X120786000Y-46080000D03*
D13*
X123326000Y-48620000D03*
%TD*%
D12*
%TO.C,J8*%
X69700000Y-90119200D03*
D13*
X69700000Y-92659200D03*
X69700000Y-95199200D03*
X69700000Y-97739200D03*
X69700000Y-100279200D03*
X69700000Y-102819200D03*
X69700000Y-105359200D03*
X69700000Y-107899200D03*
X69700000Y-110439200D03*
X69700000Y-112979200D03*
X69700000Y-115519200D03*
X69700000Y-118059200D03*
X69700000Y-120599200D03*
X69700000Y-123139200D03*
%TD*%
D12*
%TO.C,J3*%
X91530000Y-45290000D03*
D13*
X88990000Y-45290000D03*
X86450000Y-45290000D03*
X83910000Y-45290000D03*
X81370000Y-45290000D03*
X78830000Y-45290000D03*
X91530000Y-42750000D03*
X88990000Y-42750000D03*
X86450000Y-42750000D03*
X83910000Y-42750000D03*
X81370000Y-42750000D03*
X78830000Y-42750000D03*
%TD*%
D12*
%TO.C,J11*%
X69697600Y-125679200D03*
D13*
X72237600Y-125679200D03*
X74777600Y-125679200D03*
X77317600Y-125679200D03*
X79857600Y-125679200D03*
X82397600Y-125679200D03*
X84937600Y-125679200D03*
X87477600Y-125679200D03*
X90017600Y-125679200D03*
X92557600Y-125679200D03*
X95097600Y-125679200D03*
X97637600Y-125679200D03*
X100177600Y-125679200D03*
X102717600Y-125679200D03*
%TD*%
D14*
%TO.C,H1*%
X45000000Y-45000000D03*
D15*
X45000000Y-45000000D03*
%TD*%
D13*
%TO.C,JP6*%
X99450000Y-46100000D03*
D12*
X99450000Y-43560000D03*
X96910000Y-46100000D03*
D13*
X99450000Y-48640000D03*
%TD*%
D17*
%TO.C,TP2*%
X43700000Y-117600000D03*
%TD*%
D12*
%TO.C,J2*%
X68670000Y-45290000D03*
D13*
X66130000Y-45290000D03*
X63590000Y-45290000D03*
X61050000Y-45290000D03*
X58510000Y-45290000D03*
X55970000Y-45290000D03*
X68670000Y-42750000D03*
X66130000Y-42750000D03*
X63590000Y-42750000D03*
X61050000Y-42750000D03*
X58510000Y-42750000D03*
X55970000Y-42750000D03*
%TD*%
%TO.C,J7*%
X91540000Y-53480000D03*
X89000000Y-53480000D03*
X86460000Y-53480000D03*
X83920000Y-53480000D03*
X81380000Y-53480000D03*
D12*
X91540000Y-50940000D03*
D13*
X89000000Y-50940000D03*
X86460000Y-50940000D03*
X83920000Y-50940000D03*
X81380000Y-50940000D03*
%TD*%
%TO.C,JP11*%
X127700000Y-56200000D03*
D12*
X127700000Y-53660000D03*
X125160000Y-56200000D03*
D13*
X127700000Y-58740000D03*
%TD*%
D18*
%TO.C,J12*%
X47339413Y-103894245D03*
X56351566Y-132477142D03*
%TD*%
D17*
%TO.C,TP3*%
X128500000Y-82880000D03*
%TD*%
D18*
%TO.C,J4*%
X132700000Y-96175000D03*
%TD*%
D17*
%TO.C,TP6*%
X43700000Y-128100000D03*
%TD*%
D12*
%TO.C,J9*%
X102717600Y-87590000D03*
D13*
X100177600Y-87590000D03*
X97637600Y-87590000D03*
X95097600Y-87590000D03*
X92557600Y-87590000D03*
X90017600Y-87590000D03*
X87477600Y-87590000D03*
X84937600Y-87590000D03*
X82397600Y-87590000D03*
X79857600Y-87590000D03*
X77317600Y-87590000D03*
X74777600Y-87590000D03*
X72237600Y-87590000D03*
X69697600Y-87590000D03*
%TD*%
D12*
%TO.C,JP8*%
X122680000Y-117790000D03*
D13*
X122680000Y-120330000D03*
X122680000Y-122870000D03*
%TD*%
D17*
%TO.C,TP4*%
X136020000Y-82880000D03*
%TD*%
D12*
%TO.C,J10*%
X102715698Y-123139200D03*
D13*
X102715698Y-120599200D03*
X102715698Y-118059200D03*
X102715698Y-115519200D03*
X102715698Y-112979200D03*
X102715698Y-110439200D03*
X102715698Y-107899200D03*
X102715698Y-105359200D03*
X102715698Y-102819200D03*
X102715698Y-100279200D03*
X102715698Y-97739200D03*
X102715698Y-95199200D03*
X102715698Y-92659200D03*
X102715698Y-90119200D03*
%TD*%
D18*
%TO.C,J5*%
X132650000Y-120390000D03*
%TD*%
D17*
%TO.C,TP5*%
X135030000Y-128380000D03*
%TD*%
D12*
%TO.C,JP1*%
X43750000Y-70010000D03*
D13*
X43750000Y-72550000D03*
X43750000Y-75090000D03*
%TD*%
D12*
%TO.C,JP7*%
X122700000Y-96896667D03*
D13*
X122700000Y-99436667D03*
X122700000Y-101976667D03*
%TD*%
D12*
%TO.C,JP2*%
X128750000Y-105850000D03*
D13*
X128750000Y-108390000D03*
X128750000Y-110930000D03*
%TD*%
D17*
%TO.C,TP1*%
X128340000Y-136310000D03*
%TD*%
D19*
%TO.C,IC2*%
X51300000Y-70045000D03*
X51300000Y-68775000D03*
X51300000Y-67505000D03*
X51300000Y-66235000D03*
X51300000Y-64965000D03*
X51300000Y-63695000D03*
X51300000Y-62425000D03*
X51300000Y-61155000D03*
X56750000Y-61155000D03*
X56750000Y-62425000D03*
X56750000Y-63695000D03*
X56750000Y-64965000D03*
X56750000Y-66235000D03*
X56750000Y-67505000D03*
X56750000Y-68775000D03*
X56750000Y-70045000D03*
%TD*%
%TO.C,IC4*%
X101925000Y-70015000D03*
X101925000Y-68745000D03*
X101925000Y-67475000D03*
X101925000Y-66205000D03*
X101925000Y-64935000D03*
X101925000Y-63665000D03*
X101925000Y-62395000D03*
X101925000Y-61125000D03*
X107375000Y-61125000D03*
X107375000Y-62395000D03*
X107375000Y-63665000D03*
X107375000Y-64935000D03*
X107375000Y-66205000D03*
X107375000Y-67475000D03*
X107375000Y-68745000D03*
X107375000Y-70015000D03*
%TD*%
%TO.C,IC1*%
X76659000Y-70045000D03*
X76659000Y-68775000D03*
X76659000Y-67505000D03*
X76659000Y-66235000D03*
X76659000Y-64965000D03*
X76659000Y-63695000D03*
X76659000Y-62425000D03*
X76659000Y-61155000D03*
X82109000Y-61155000D03*
X82109000Y-62425000D03*
X82109000Y-63695000D03*
X82109000Y-64965000D03*
X82109000Y-66235000D03*
X82109000Y-67505000D03*
X82109000Y-68775000D03*
X82109000Y-70045000D03*
%TD*%
D14*
%TO.C,H4*%
X45000000Y-135000000D03*
D15*
X45000000Y-135000000D03*
%TD*%
%LPD*%
M02*
