M48
; DRILL file KiCad 10.0.5 date 2026-10-01T15:28:46
; FORMAT={-:-/ absolute / inch / decimal}
; #@! TF.CreationDate,2026-10-01T15:28:46-05:00
; #@! TF.GenerationSoftware,Kicad,Pcbnew,10.0.5
; #@! TF.FileFunction,Plated,1,4,PTH
FMAT,2
INCH
; #@! TA.AperFunction,Plated,PTH,ComponentDrill
T1C0.0100
; #@! TA.AperFunction,Plated,PTH,ViaDrill
T2C0.0118
; #@! TA.AperFunction,Plated,PTH,ComponentDrill
T3C0.0394
; #@! TA.AperFunction,Plated,PTH,ComponentDrill
T4C0.0591
; #@! TA.AperFunction,Plated,PTH,ComponentDrill
T5C0.1260
; #@! TA.AperFunction,Plated,PTH,ComponentDrill
T6C0.2402
%
G90
G05
T1
X3.3074Y-4.1114
X3.3074Y-4.1547
X3.3074Y-4.198
X3.3074Y-4.2413
X3.3074Y-4.2846
X3.3507Y-4.1114
X3.3507Y-4.1547
X3.3507Y-4.198
X3.3507Y-4.2413
X3.3507Y-4.2846
X3.394Y-4.1114
X3.394Y-4.1547
X3.394Y-4.198
X3.394Y-4.2413
X3.394Y-4.2846
X3.4373Y-4.1114
X3.4373Y-4.1547
X3.4373Y-4.198
X3.4373Y-4.2413
X3.4373Y-4.2846
X3.4806Y-4.1114
X3.4806Y-4.1547
X3.4806Y-4.198
X3.4806Y-4.2413
X3.4806Y-4.2846
T2
X1.7943Y-3.1742
X1.7982Y-3.4026
X1.8957Y-3.3642
X1.8967Y-3.2628
X1.9892Y-3.1752
X1.9931Y-3.3967
X2.0677Y-2.7079
X2.0685Y-2.7579
X2.0776Y-2.4579
X2.0839Y-2.6583
X2.1382Y-2.6429
X2.211Y-4.648
X2.2343Y-2.7992
X2.2425Y-3.8953
X2.2819Y-2.7342
X2.2854Y-2.6579
X2.2902Y-2.5287
X2.3161Y-4.4657
X2.3402Y-3.848
X2.372Y-2.6075
X2.4004Y-2.5579
X2.4331Y-2.3591
X2.4732Y-3.0169
X2.474Y-3.9827
X2.5089Y-2.8013
X2.5421Y-3.2937
X2.5429Y-5.1307
X2.5561Y-2.7313
X2.5591Y-2.6575
X2.5602Y-2.5079
X2.561Y-2.4075
X2.5795Y-4.048
X2.5858Y-4.9134
X2.5858Y-4.9917
X2.5862Y-3.9071
X2.5874Y-3.5173
X2.5874Y-4.5484
X2.5878Y-4.7311
X2.589Y-3.7122
X2.5929Y-2.4575
X2.6098Y-2.5925
X2.6335Y-2.5591
X2.6598Y-2.6287
X2.6693Y-2.4577
X2.7441Y-2.8657
X2.7709Y-2.7075
X2.772Y-2.7579
X2.7874Y-3.0748
X2.7882Y-5.1346
X2.7884Y-5.3652
X2.8276Y-3.2878
X2.8858Y-4.0531
X2.9039Y-4.1232
X2.9307Y-3.1354
X2.9307Y-3.2398
X2.9575Y-2.1854
X2.963Y-3.6283
X2.9657Y-3.7559
X2.9953Y-3.852
X3.0323Y-3.2925
X3.0331Y-5.1331
X3.0441Y-4.7972
X3.0443Y-4.6358
X3.0657Y-2.7079
X3.0665Y-2.7579
X3.0976Y-3.3575
X3.098Y-3.9114
X3.1646Y-3.3232
X3.1669Y-3.1579
X3.1866Y-3.6362
X3.233Y-2.8003
X3.2362Y-3.289
X3.278Y-5.1402
X3.2803Y-2.7327
X3.2839Y-2.6575
X3.298Y-3.6563
X3.298Y-3.8374
X3.3002Y-4.6319
X3.3441Y-2.9697
X3.4067Y-2.6012
X3.4323Y-2.3071
X3.4421Y-2.4736
X3.4445Y-2.9358
X3.4681Y-2.5579
X3.4685Y-3.2839
X3.4872Y-3.7569
X3.5228Y-5.1413
X3.5276Y-2.3711
X3.5276Y-2.7993
X3.5524Y-3.5469
X3.5772Y-3.3028
X3.5783Y-2.7327
X3.5819Y-2.6575
X3.6106Y-2.8236
X3.6106Y-3.0406
X3.6283Y-2.411
X3.644Y-4.807
X3.6591Y-2.6339
X3.6705Y-2.3098
X3.6831Y-2.5079
X3.6909Y-2.4577
X3.6965Y-4.5024
X3.7441Y-3.2921
X3.7441Y-4.8075
X3.7451Y-3.7579
X3.7677Y-5.1374
X3.7917Y-2.7079
X3.7921Y-2.7575
X3.8909Y-5.2437
X3.9012Y-2.8657
X3.9161Y-2.3071
X3.9409Y-5.1394
X3.9803Y-3.2969
X3.9882Y-2.8016
X3.9882Y-3.0138
X4.0128Y-3.0778
X4.0128Y-5.3602
X4.013Y-5.1374
X4.0138Y-1.6929
X4.0472Y-2.8071
X4.0618Y-2.7063
X4.0669Y-2.3366
X4.1008Y-5.1409
X4.1075Y-2.474
X4.124Y-3.1961
X4.126Y-3.4567
X4.1358Y-3.2976
X4.2098Y-2.8933
X4.2098Y-4.048
X4.2591Y-2.8457
X4.2815Y-2.7575
X4.2854Y-2.2805
X4.2858Y-2.6567
X4.3083Y-2.5319
X4.3087Y-3.5169
X4.3091Y-3.7102
X4.3256Y-3.7819
X4.337Y-2.5831
X4.3614Y-2.4972
X4.3752Y-2.4083
X4.3858Y-2.3278
X4.3925Y-2.5283
X4.3925Y-4.148
X4.4075Y-2.0531
X4.4256Y-2.5685
X4.4492Y-2.6378
X4.4732Y-2.1024
X4.478Y-3.0142
X4.478Y-4.2406
X4.4835Y-4.4898
X4.4854Y-2.4756
X4.5083Y-3.3244
X4.5087Y-4.3488
X4.5089Y-5.1476
X4.5126Y-2.3437
X4.5384Y-5.2726
X4.5393Y-4.6621
X4.5465Y-2.1374
X4.5874Y-3.574
X4.5965Y-2.25
X4.5965Y-2.4579
X4.6142Y-5.1486
X4.6496Y-1.6929
X4.7004Y-2.5079
X4.7008Y-2.4575
X4.7608Y-2.3642
X4.7618Y-2.7982
X5.1299Y-1.6909
X5.1988Y-4.4587
X5.2055Y-2.0291
X5.2362Y-4.3543
X5.3268Y-4.4035
X5.4055Y-4.4606
T3
X1.7224Y-2.7563
X1.7224Y-2.8563
X1.7224Y-2.9563
X2.2035Y-1.6831
X2.2035Y-1.7831
X2.3035Y-1.6831
X2.3035Y-1.7831
X2.3043Y-2.0045
X2.3043Y-2.1045
X2.4035Y-1.6831
X2.4035Y-1.7831
X2.4043Y-2.0045
X2.4043Y-2.1045
X2.5035Y-1.6831
X2.5035Y-1.7831
X2.5043Y-2.0045
X2.5043Y-2.1045
X2.6035Y-1.6831
X2.6035Y-1.7831
X2.6043Y-2.0045
X2.6043Y-2.1045
X2.7035Y-1.6831
X2.7035Y-1.7831
X2.7043Y-2.0045
X2.7043Y-2.1045
X2.744Y-3.4484
X2.744Y-4.948
X2.7441Y-3.548
X2.7441Y-3.648
X2.7441Y-3.748
X2.7441Y-3.848
X2.7441Y-3.948
X2.7441Y-4.048
X2.7441Y-4.148
X2.7441Y-4.248
X2.7441Y-4.348
X2.7441Y-4.448
X2.7441Y-4.548
X2.7441Y-4.648
X2.7441Y-4.748
X2.7441Y-4.848
X2.844Y-3.4484
X2.844Y-4.948
X2.944Y-3.4484
X2.944Y-4.948
X3.044Y-3.4484
X3.044Y-4.948
X3.1035Y-1.6831
X3.1035Y-1.7831
X3.144Y-3.4484
X3.144Y-4.948
X3.2035Y-1.6831
X3.2035Y-1.7831
X3.2039Y-2.0055
X3.2039Y-2.1055
X3.244Y-3.4484
X3.244Y-4.948
X3.3035Y-1.6831
X3.3035Y-1.7831
X3.3039Y-2.0055
X3.3039Y-2.1055
X3.344Y-3.4484
X3.344Y-4.948
X3.4035Y-1.6831
X3.4035Y-1.7831
X3.4039Y-2.0055
X3.4039Y-2.1055
X3.444Y-3.4484
X3.444Y-4.948
X3.5035Y-1.6831
X3.5035Y-1.7831
X3.5039Y-2.0055
X3.5039Y-2.1055
X3.544Y-3.4484
X3.544Y-4.948
X3.6035Y-1.6831
X3.6035Y-1.7831
X3.6039Y-2.0055
X3.6039Y-2.1055
X3.644Y-3.4484
X3.644Y-4.948
X3.744Y-3.4484
X3.744Y-4.948
X3.8154Y-1.815
X3.844Y-3.4484
X3.844Y-4.948
X3.9154Y-1.715
X3.9154Y-1.815
X3.9154Y-1.915
X3.944Y-3.4484
X3.944Y-4.948
X4.0439Y-3.548
X4.0439Y-3.648
X4.0439Y-3.748
X4.0439Y-3.848
X4.0439Y-3.948
X4.0439Y-4.048
X4.0439Y-4.148
X4.0439Y-4.248
X4.0439Y-4.348
X4.0439Y-4.448
X4.0439Y-4.548
X4.0439Y-4.648
X4.0439Y-4.748
X4.0439Y-4.848
X4.044Y-3.4484
X4.044Y-4.948
X4.2854Y-1.815
X4.3854Y-1.715
X4.3854Y-1.815
X4.3854Y-1.915
X4.7554Y-1.8142
X4.8299Y-4.6374
X4.8299Y-4.7374
X4.8299Y-4.8374
X4.8307Y-3.4035
X4.8307Y-3.5035
X4.8307Y-3.6035
X4.8307Y-3.8148
X4.8307Y-3.9148
X4.8307Y-4.0148
X4.8307Y-4.2261
X4.8307Y-4.3261
X4.8307Y-4.4261
X4.8554Y-1.7142
X4.8554Y-1.8142
X4.8554Y-1.9142
X4.9Y-5.0386
X4.9Y-5.1386
X4.9Y-5.2386
X4.9276Y-2.2126
X5.0276Y-2.1126
X5.0276Y-2.2126
X5.0276Y-2.3126
X5.0689Y-4.1673
X5.0689Y-4.2673
X5.0689Y-4.3673
T4
X1.7205Y-4.6299
X1.7205Y-5.0433
X5.0528Y-5.3665
X5.0591Y-3.263
X5.3161Y-5.0543
X5.3551Y-3.263
T5
X1.7717Y-1.7717
X1.7717Y-5.315
X5.315Y-1.7717
X5.315Y-5.315
T6
X1.8638Y-4.0903
X2.2186Y-5.2156
X5.2224Y-4.7398
X5.2244Y-3.7864
M30
