%TF.GenerationSoftware,KiCad,Pcbnew,10.0.5*%
%TF.CreationDate,2026-10-01T15:28:46-05:00*%
%TF.ProjectId,Lab_1_Morris_Lin_ASIC_II,4c61625f-315f-44d6-9f72-7269735f4c69,rev?*%
%TF.SameCoordinates,Original*%
%TF.FileFunction,Paste,Bot*%
%TF.FilePolarity,Positive*%
%FSLAX46Y46*%
G04 Gerber Fmt 4.6, Leading zero omitted, Abs format (unit mm)*
G04 Created by KiCad (PCBNEW 10.0.5) date 2026-10-01 15:28:46*
%MOMM*%
%LPD*%
G01*
G04 APERTURE LIST*
%ADD10R,1.550000X0.700000*%
G04 APERTURE END LIST*
D10*
%TO.C,IC2*%
X51300000Y-70045000D03*
X51300000Y-68775000D03*
X51300000Y-67505000D03*
X51300000Y-66235000D03*
X51300000Y-64965000D03*
X51300000Y-63695000D03*
X51300000Y-62425000D03*
X51300000Y-61155000D03*
X56750000Y-61155000D03*
X56750000Y-62425000D03*
X56750000Y-63695000D03*
X56750000Y-64965000D03*
X56750000Y-66235000D03*
X56750000Y-67505000D03*
X56750000Y-68775000D03*
X56750000Y-70045000D03*
%TD*%
%TO.C,IC4*%
X101925000Y-70015000D03*
X101925000Y-68745000D03*
X101925000Y-67475000D03*
X101925000Y-66205000D03*
X101925000Y-64935000D03*
X101925000Y-63665000D03*
X101925000Y-62395000D03*
X101925000Y-61125000D03*
X107375000Y-61125000D03*
X107375000Y-62395000D03*
X107375000Y-63665000D03*
X107375000Y-64935000D03*
X107375000Y-66205000D03*
X107375000Y-67475000D03*
X107375000Y-68745000D03*
X107375000Y-70015000D03*
%TD*%
%TO.C,IC1*%
X76659000Y-70045000D03*
X76659000Y-68775000D03*
X76659000Y-67505000D03*
X76659000Y-66235000D03*
X76659000Y-64965000D03*
X76659000Y-63695000D03*
X76659000Y-62425000D03*
X76659000Y-61155000D03*
X82109000Y-61155000D03*
X82109000Y-62425000D03*
X82109000Y-63695000D03*
X82109000Y-64965000D03*
X82109000Y-66235000D03*
X82109000Y-67505000D03*
X82109000Y-68775000D03*
X82109000Y-70045000D03*
%TD*%
M02*
