%TF.GenerationSoftware,KiCad,Pcbnew,10.0.5*%
%TF.CreationDate,2026-10-01T15:28:46-05:00*%
%TF.ProjectId,Lab_1_Morris_Lin_ASIC_II,4c61625f-315f-44d6-9f72-7269735f4c69,rev?*%
%TF.SameCoordinates,Original*%
%TF.FileFunction,Paste,Top*%
%TF.FilePolarity,Positive*%
%FSLAX46Y46*%
G04 Gerber Fmt 4.6, Leading zero omitted, Abs format (unit mm)*
G04 Created by KiCad (PCBNEW 10.0.5) date 2026-10-01 15:28:46*
%MOMM*%
%LPD*%
G01*
G04 APERTURE LIST*
G04 Aperture macros list*
%AMRoundRect*
0 Rectangle with rounded corners*
0 $1 Rounding radius*
0 $2 $3 $4 $5 $6 $7 $8 $9 X,Y pos of 4 corners*
0 Add a 4 corners polygon primitive as box body*
4,1,4,$2,$3,$4,$5,$6,$7,$8,$9,$2,$3,0*
0 Add four circle primitives for the rounded corners*
1,1,$1+$1,$2,$3*
1,1,$1+$1,$4,$5*
1,1,$1+$1,$6,$7*
1,1,$1+$1,$8,$9*
0 Add four rect primitives between the rounded corners*
20,1,$1+$1,$2,$3,$4,$5,0*
20,1,$1+$1,$4,$5,$6,$7,0*
20,1,$1+$1,$6,$7,$8,$9,0*
20,1,$1+$1,$8,$9,$2,$3,0*%
G04 Aperture macros list end*
%ADD10R,1.550000X0.700000*%
%ADD11RoundRect,0.250000X-0.625000X0.400000X-0.625000X-0.400000X0.625000X-0.400000X0.625000X0.400000X0*%
%ADD12RoundRect,0.250000X0.412500X0.650000X-0.412500X0.650000X-0.412500X-0.650000X0.412500X-0.650000X0*%
%ADD13RoundRect,0.250000X-0.412500X-0.650000X0.412500X-0.650000X0.412500X0.650000X-0.412500X0.650000X0*%
%ADD14RoundRect,0.250000X-0.650000X0.412500X-0.650000X-0.412500X0.650000X-0.412500X0.650000X0.412500X0*%
%ADD15RoundRect,0.250000X-0.400000X-0.625000X0.400000X-0.625000X0.400000X0.625000X-0.400000X0.625000X0*%
%ADD16R,2.350000X0.250000*%
%ADD17R,0.250000X2.350000*%
%ADD18R,5.600000X5.600000*%
%ADD19RoundRect,0.250001X0.624999X-0.462499X0.624999X0.462499X-0.624999X0.462499X-0.624999X-0.462499X0*%
%ADD20RoundRect,0.250000X0.625000X-0.400000X0.625000X0.400000X-0.625000X0.400000X-0.625000X-0.400000X0*%
%ADD21R,1.200000X1.200000*%
%ADD22RoundRect,0.250000X0.400000X0.625000X-0.400000X0.625000X-0.400000X-0.625000X0.400000X-0.625000X0*%
%ADD23RoundRect,0.250001X-0.462499X-0.624999X0.462499X-0.624999X0.462499X0.624999X-0.462499X0.624999X0*%
%ADD24RoundRect,0.250000X0.650000X-0.412500X0.650000X0.412500X-0.650000X0.412500X-0.650000X-0.412500X0*%
%ADD25RoundRect,0.250001X0.462499X0.624999X-0.462499X0.624999X-0.462499X-0.624999X0.462499X-0.624999X0*%
%ADD26RoundRect,0.150000X-0.587500X-0.150000X0.587500X-0.150000X0.587500X0.150000X-0.587500X0.150000X0*%
%ADD27RoundRect,0.250001X-0.624999X0.462499X-0.624999X-0.462499X0.624999X-0.462499X0.624999X0.462499X0*%
%ADD28RoundRect,0.150000X-0.150000X0.512500X-0.150000X-0.512500X0.150000X-0.512500X0.150000X0.512500X0*%
%ADD29RoundRect,0.150000X0.150000X-0.512500X0.150000X0.512500X-0.150000X0.512500X-0.150000X-0.512500X0*%
G04 APERTURE END LIST*
D10*
%TO.C,IC5*%
X95051000Y-70045000D03*
X95051000Y-68775000D03*
X95051000Y-67505000D03*
X95051000Y-66235000D03*
X95051000Y-64965000D03*
X95051000Y-63695000D03*
X95051000Y-62425000D03*
X95051000Y-61155000D03*
X89601000Y-61155000D03*
X89601000Y-62425000D03*
X89601000Y-63695000D03*
X89601000Y-64965000D03*
X89601000Y-66235000D03*
X89601000Y-67505000D03*
X89601000Y-68775000D03*
X89601000Y-70045000D03*
%TD*%
D11*
%TO.C,R27*%
X89481429Y-131690000D03*
X89481429Y-134790000D03*
%TD*%
D12*
%TO.C,C12*%
X95105000Y-115910000D03*
X91980000Y-115910000D03*
%TD*%
D11*
%TO.C,R21*%
X77035714Y-131690000D03*
X77035714Y-134790000D03*
%TD*%
D13*
%TO.C,C10*%
X83830000Y-115910000D03*
X86955000Y-115910000D03*
%TD*%
D14*
%TO.C,C14*%
X118610000Y-99477500D03*
X118610000Y-102602500D03*
%TD*%
D15*
%TO.C,R9*%
X50145000Y-84290000D03*
X53245000Y-84290000D03*
%TD*%
D16*
%TO.C,U3*%
X81382600Y-103379200D03*
X81382600Y-103879200D03*
X81382600Y-104379200D03*
X81382600Y-104879200D03*
X81382600Y-105379200D03*
X81382600Y-105879200D03*
X81382600Y-106379200D03*
X81382600Y-106879200D03*
X81382600Y-107379200D03*
X81382600Y-107879200D03*
X81382600Y-108379200D03*
X81382600Y-108879200D03*
X81382600Y-109379200D03*
X81382600Y-109879200D03*
D17*
X82957600Y-111454200D03*
X83457600Y-111454200D03*
X83957600Y-111454200D03*
X84457600Y-111454200D03*
X84957600Y-111454200D03*
X85457600Y-111454200D03*
X85957600Y-111454200D03*
X86457600Y-111454200D03*
X86957600Y-111454200D03*
X87457600Y-111454200D03*
X87957600Y-111454200D03*
X88457600Y-111454200D03*
X88957600Y-111454200D03*
X89457600Y-111454200D03*
D16*
X91032600Y-109879200D03*
X91032600Y-109379200D03*
X91032600Y-108879200D03*
X91032600Y-108379200D03*
X91032600Y-107879200D03*
X91032600Y-107379200D03*
X91032600Y-106879200D03*
X91032600Y-106379200D03*
X91032600Y-105879200D03*
X91032600Y-105379200D03*
X91032600Y-104879200D03*
X91032600Y-104379200D03*
X91032600Y-103879200D03*
X91032600Y-103379200D03*
D17*
X89457600Y-101804200D03*
X88957600Y-101804200D03*
X88457600Y-101804200D03*
X87957600Y-101804200D03*
X87457600Y-101804200D03*
X86957600Y-101804200D03*
X86457600Y-101804200D03*
X85957600Y-101804200D03*
X85457600Y-101804200D03*
X84957600Y-101804200D03*
X84457600Y-101804200D03*
X83957600Y-101804200D03*
X83457600Y-101804200D03*
X82957600Y-101804200D03*
D18*
X86207600Y-106629200D03*
%TD*%
D19*
%TO.C,D6*%
X114660000Y-103340000D03*
X114660000Y-100365000D03*
%TD*%
D14*
%TO.C,C16*%
X118610000Y-109925000D03*
X118610000Y-113050000D03*
%TD*%
D20*
%TO.C,R31*%
X64570000Y-82480000D03*
X64570000Y-79380000D03*
%TD*%
D15*
%TO.C,R28*%
X108120000Y-115530000D03*
X111220000Y-115530000D03*
%TD*%
D11*
%TO.C,R26*%
X95704286Y-131690000D03*
X95704286Y-134790000D03*
%TD*%
%TO.C,R7*%
X114660000Y-92640000D03*
X114660000Y-95740000D03*
%TD*%
D21*
%TO.C,D5*%
X46100000Y-88700000D03*
X43300000Y-88700000D03*
%TD*%
D22*
%TO.C,R24*%
X64565000Y-120164286D03*
X61465000Y-120164286D03*
%TD*%
D12*
%TO.C,C9*%
X88577500Y-97260000D03*
X85452500Y-97260000D03*
%TD*%
D22*
%TO.C,R14*%
X64590000Y-94285715D03*
X61490000Y-94285715D03*
%TD*%
D23*
%TO.C,D8*%
X50200000Y-88900000D03*
X53175000Y-88900000D03*
%TD*%
D11*
%TO.C,R35*%
X64590000Y-131660000D03*
X64590000Y-134760000D03*
%TD*%
%TO.C,R32*%
X70795714Y-79390000D03*
X70795714Y-82490000D03*
%TD*%
D15*
%TO.C,R18*%
X107960000Y-99230000D03*
X111060000Y-99230000D03*
%TD*%
%TO.C,R30*%
X108130000Y-124821429D03*
X111230000Y-124821429D03*
%TD*%
%TO.C,R19*%
X108015000Y-94279286D03*
X111115000Y-94279286D03*
%TD*%
D20*
%TO.C,R36*%
X70812857Y-134790000D03*
X70812857Y-131690000D03*
%TD*%
D13*
%TO.C,C4*%
X134162500Y-105000000D03*
X137287500Y-105000000D03*
%TD*%
D20*
%TO.C,R10*%
X128030000Y-46080000D03*
X128030000Y-42980000D03*
%TD*%
D24*
%TO.C,C6*%
X76260000Y-107997500D03*
X76260000Y-104872500D03*
%TD*%
D20*
%TO.C,R5*%
X116092000Y-46100000D03*
X116092000Y-43000000D03*
%TD*%
D10*
%TO.C,IC6*%
X115485000Y-61155000D03*
X115485000Y-62425000D03*
X115485000Y-63695000D03*
X115485000Y-64965000D03*
X115485000Y-66235000D03*
X115485000Y-67505000D03*
X115485000Y-68775000D03*
X115485000Y-70045000D03*
X120935000Y-70045000D03*
X120935000Y-68775000D03*
X120935000Y-67505000D03*
X120935000Y-66235000D03*
X120935000Y-64965000D03*
X120935000Y-63695000D03*
X120935000Y-62425000D03*
X120935000Y-61155000D03*
%TD*%
D20*
%TO.C,R17*%
X89460000Y-82490000D03*
X89460000Y-79390000D03*
%TD*%
D13*
%TO.C,C11*%
X91980000Y-97270000D03*
X95105000Y-97270000D03*
%TD*%
D11*
%TO.C,R37*%
X108150000Y-131690000D03*
X108150000Y-134790000D03*
%TD*%
D20*
%TO.C,R11*%
X77021429Y-82490000D03*
X77021429Y-79390000D03*
%TD*%
D25*
%TO.C,D2*%
X135235000Y-73605000D03*
X132260000Y-73605000D03*
%TD*%
D22*
%TO.C,R15*%
X64590000Y-89341429D03*
X61490000Y-89341429D03*
%TD*%
D11*
%TO.C,R34*%
X101924286Y-79390000D03*
X101924286Y-82490000D03*
%TD*%
%TO.C,R22*%
X83258571Y-131690000D03*
X83258571Y-134790000D03*
%TD*%
D15*
%TO.C,R29*%
X108130000Y-120175715D03*
X111230000Y-120175715D03*
%TD*%
D14*
%TO.C,C13*%
X118610000Y-89027500D03*
X118610000Y-92152500D03*
%TD*%
D26*
%TO.C,Q1*%
X108642500Y-102400000D03*
X108642500Y-104300000D03*
X110517500Y-103350000D03*
%TD*%
D10*
%TO.C,IC3*%
X69167000Y-70045000D03*
X69167000Y-68775000D03*
X69167000Y-67505000D03*
X69167000Y-66235000D03*
X69167000Y-64965000D03*
X69167000Y-63695000D03*
X69167000Y-62425000D03*
X69167000Y-61155000D03*
X63717000Y-61155000D03*
X63717000Y-62425000D03*
X63717000Y-63695000D03*
X63717000Y-64965000D03*
X63717000Y-66235000D03*
X63717000Y-67505000D03*
X63717000Y-68775000D03*
X63717000Y-70045000D03*
%TD*%
D15*
%TO.C,R3*%
X125647500Y-69275000D03*
X128747500Y-69275000D03*
%TD*%
%TO.C,R4*%
X125672500Y-64950000D03*
X128772500Y-64950000D03*
%TD*%
D11*
%TO.C,R8*%
X132230000Y-53100000D03*
X132230000Y-56200000D03*
%TD*%
D20*
%TO.C,R33*%
X108150000Y-82460000D03*
X108150000Y-79360000D03*
%TD*%
D12*
%TO.C,C5*%
X46162500Y-84300000D03*
X43037500Y-84300000D03*
%TD*%
D25*
%TO.C,D4*%
X135260000Y-64975000D03*
X132285000Y-64975000D03*
%TD*%
D20*
%TO.C,R16*%
X95698571Y-82490000D03*
X95698571Y-79390000D03*
%TD*%
D13*
%TO.C,C1*%
X116387500Y-128210001D03*
X119512500Y-128210001D03*
%TD*%
D11*
%TO.C,R39*%
X107800000Y-52375000D03*
X107800000Y-55475000D03*
%TD*%
D25*
%TO.C,D1*%
X135235000Y-77920000D03*
X132260000Y-77920000D03*
%TD*%
D22*
%TO.C,R13*%
X64550000Y-99230000D03*
X61450000Y-99230000D03*
%TD*%
D13*
%TO.C,C7*%
X77342500Y-97270000D03*
X80467500Y-97270000D03*
%TD*%
D27*
%TO.C,D9*%
X103525000Y-52392500D03*
X103525000Y-55367500D03*
%TD*%
D25*
%TO.C,D3*%
X135235000Y-69290000D03*
X132260000Y-69290000D03*
%TD*%
D28*
%TO.C,U1*%
X116230000Y-132642501D03*
X115280000Y-132642501D03*
X114330000Y-132642501D03*
X114330000Y-134917501D03*
X116230000Y-134917501D03*
%TD*%
D15*
%TO.C,R20*%
X108150000Y-89328571D03*
X111250000Y-89328571D03*
%TD*%
%TO.C,R1*%
X125647500Y-77925000D03*
X128747500Y-77925000D03*
%TD*%
D20*
%TO.C,R38*%
X101927143Y-134790000D03*
X101927143Y-131690000D03*
%TD*%
%TO.C,R12*%
X83247143Y-82490000D03*
X83247143Y-79390000D03*
%TD*%
D29*
%TO.C,U2*%
X132050000Y-111825000D03*
X133000000Y-111825000D03*
X133950000Y-111825000D03*
X133950000Y-109550000D03*
X132050000Y-109550000D03*
%TD*%
D19*
%TO.C,F1*%
X48060000Y-80927500D03*
X48060000Y-77952500D03*
%TD*%
D24*
%TO.C,C2*%
X137275000Y-111862500D03*
X137275000Y-108737500D03*
%TD*%
D22*
%TO.C,R25*%
X64565000Y-124798571D03*
X61465000Y-124798571D03*
%TD*%
D24*
%TO.C,C3*%
X120850000Y-135342501D03*
X120850000Y-132217501D03*
%TD*%
D15*
%TO.C,R2*%
X125647500Y-73600000D03*
X128747500Y-73600000D03*
%TD*%
D22*
%TO.C,R23*%
X64510000Y-115530000D03*
X61410000Y-115530000D03*
%TD*%
D14*
%TO.C,C15*%
X118610000Y-120375000D03*
X118610000Y-123500000D03*
%TD*%
D11*
%TO.C,R6*%
X104154000Y-43000000D03*
X104154000Y-46100000D03*
%TD*%
D13*
%TO.C,C8*%
X77342500Y-115910000D03*
X80467500Y-115910000D03*
%TD*%
M02*
